<svg width="1294" height="55" viewBox="0 0 1294 55" fill="none" xmlns="http://www.w3.org/2000/svg">
<path d="M-28.1553 49.0436L-37.96 45.7154C-14.6596 9.50512 18.6569 3.26293 32.4026 4.66812V11.9901C-5.43171 10.0376 -23.7337 35.8789 -28.1553 49.0436Z" fill="#B6BCA1"/>
<path d="M-24.0318 51.2412L-34.3245 51.1958L-36.3021 43.3545L-26.4741 45.0514C-7.25766 46.7026 1.23922 42.3452 3.0856 39.96C-1.35944 35.3801 -4.75228 36.8359 -5.89307 38.1363C-2.22557 37.7696 -2.42129 40.2548 -2.97759 41.5433C-9.83594 45.0986 -11.8886 40.7643 -12.0577 38.1527C-5.06426 28.6103 5.03614 33.7171 9.21216 37.4632C14.7996 34.4593 13.7711 30.3034 12.5584 28.601C12.0218 32.2974 -2.53194 29.95 2.99231 22.1187C6.23811 17.5174 14.4398 18.9782 17.1384 21.1368C32.8094 43.2068 -3.77884 50.4022 -24.0318 51.2412Z" fill="#B6BCA1"/>
<path d="M86.9044 49.0009L96.709 45.6727C73.4086 9.46239 40.0922 3.2202 26.3465 4.6254V11.9474C64.1807 9.99486 82.4827 35.8361 86.9044 49.0009Z" fill="#B6BCA1"/>
<path d="M132.037 49.0305C159.721 47.078 151.454 19.8167 143.86 6.4301C103.2 3.5457 104.353 26.399 105.219 29.2834C106.084 32.1678 111.851 34.1647 116.465 32.3897C121.079 30.6147 124.251 25.2897 119.349 23.0709C115.427 21.2959 114.254 24.9938 114.158 27.0647C108.621 20.8521 112.428 19.8906 115.023 20.1865C117.33 20.8521 122.925 21.9171 126.846 20.8521C130.768 19.7871 129.442 16.4146 128.288 14.8614C122.29 13.0864 122.521 16.6364 123.386 18.6333C120.618 19.8759 118.964 18.1156 118.484 17.0802C118.253 10.3351 128.961 10.5718 134.344 11.5333C132.268 26.4434 112.139 39.1939 102.335 43.7054L100.893 50.8055C120.041 48.6755 135.209 27.8782 140.4 17.7458C146.398 25.7334 144.629 33.3512 142.995 36.1616C138.612 36.1616 138.093 33.647 138.381 32.3897C146.167 32.8335 141.265 21.9615 135.786 27.9522C131.403 32.7447 137.036 38.5283 140.4 40.821C139.708 43.6611 136.074 44.3711 134.344 44.3711C141.842 41.4867 132.037 31.0585 126.846 38.8242C122.694 45.0367 128.577 48.2169 132.037 49.0305Z" fill="#B6BCA1"/>
<path d="M103.342 42.7883L101.324 50.554H90.9421L94.9793 43.454C100.747 29.2538 96.8057 22.0058 94.1142 20.1569C87.424 22.6419 88.6352 25.4819 90.077 26.5913C90.3077 23.7513 93.4414 24.3725 94.9793 25.0382C98.2091 30.8957 92.2879 31.6205 88.9235 31.2507C78.0808 24.1507 86.5205 17.4943 92.0956 15.0537C89.3273 10.2611 83.829 10.2464 81.4259 10.838C86.0398 11.9474 80.2724 22.4931 71.3329 16.8287C66.0805 13.5006 69.5066 7.58385 72.7748 5.95676C103.919 -1.67581 106.13 27.3309 103.342 42.7883Z" fill="#B6BCA1"/>
<path d="M101.035 50.7757C94.5754 51.3083 92.576 51.1455 92.3837 50.9976L92.6721 49.8882L101.323 49.0007L101.035 50.7757Z" fill="#B6BCA1"/>
<path d="M82.7828 51.1985L93.0755 51.1531L95.0531 43.3118L85.2251 45.0086C66.0086 46.6599 57.5118 42.3024 55.6654 39.9173C60.1104 35.3374 63.5033 36.7932 64.6441 38.0936C60.9765 37.7269 61.1723 40.2121 61.7286 41.5006C68.5869 45.0559 70.6396 40.7215 70.8087 38.1099C63.8152 28.5676 53.7148 33.6743 49.5388 37.4205C43.9514 34.4165 44.9799 30.2607 46.1926 28.5583C46.7291 32.2547 61.2829 29.9073 55.7587 22.076C52.5129 17.4747 44.3112 18.9354 41.6126 21.0941C25.9416 43.164 62.5298 50.3595 82.7828 51.1985Z" fill="#B6BCA1"/>
<path d="M218.113 5.68494L208.309 9.0131C231.609 45.2234 264.925 51.4656 278.671 50.0604V42.7384C240.837 44.6909 222.535 18.8496 218.113 5.68494Z" fill="#B6BCA1"/>
<path d="M172.981 5.65554C145.298 7.60806 153.565 34.8694 161.158 48.2559C201.819 51.1403 200.665 28.287 199.8 25.4026C198.935 22.5182 193.167 20.5213 188.554 22.2963C183.94 24.0713 180.767 29.3964 185.67 31.6152C189.592 33.3902 190.764 29.6922 190.86 27.6214C196.397 33.8339 192.591 34.7954 189.995 34.4996C187.688 33.8339 182.094 32.7689 178.172 33.8339C174.25 34.8989 175.577 38.2715 176.73 39.8246C182.728 41.5996 182.498 38.0496 181.633 36.0527C184.401 34.8102 186.054 36.5704 186.535 37.6058C186.766 44.3509 176.057 44.1142 170.675 43.1528C172.751 28.2426 192.879 15.4921 202.684 10.9806L204.126 3.88052C184.978 6.01054 169.809 26.8078 164.619 36.9402C158.621 28.9526 160.389 21.3349 162.023 18.5244C166.407 18.5244 166.926 21.039 166.637 22.2963C158.851 21.8526 163.754 32.7245 169.233 26.7339C173.616 21.9413 167.983 16.1577 164.619 13.865C165.311 11.025 168.944 10.315 170.675 10.315C163.177 13.1994 172.981 23.6276 178.172 15.8619C182.325 9.64933 176.442 6.46909 172.981 5.65554Z" fill="#B6BCA1"/>
<path d="M201.676 11.8977L203.695 4.13199H214.076L210.039 11.2321C204.272 25.4322 208.213 32.6802 210.904 34.5292C217.595 32.0441 216.383 29.2041 214.942 28.0947C214.711 30.9348 211.577 30.3135 210.039 29.6479C206.809 23.7903 212.731 23.0655 216.095 23.4353C226.938 30.5354 218.498 37.1917 212.923 39.6323C215.691 44.4249 221.19 44.4397 223.593 43.848C218.979 42.7386 224.746 32.1929 233.686 37.8573C238.938 41.1855 235.512 47.1022 232.244 48.7293C201.1 56.3618 198.889 27.3551 201.676 11.8977Z" fill="#B6BCA1"/>
<path d="M203.984 3.91029C210.443 3.37778 212.443 3.54049 212.635 3.68841L212.346 4.79779L203.695 5.6853L203.984 3.91029Z" fill="#B6BCA1"/>
<path d="M222.236 3.48731L211.943 3.53271L209.965 11.374L219.793 9.67714C239.01 8.02587 247.507 12.3833 249.353 14.7685C244.908 19.3484 241.515 17.8926 240.375 16.5922C244.042 16.9589 243.846 14.4737 243.29 13.1852C236.432 9.62987 234.379 13.9642 234.21 16.5759C241.203 26.1182 251.304 21.0115 255.48 17.2653C261.067 20.2693 260.039 24.4251 258.826 26.1275C258.289 22.4311 243.736 24.7785 249.26 32.6098C252.506 37.2111 260.707 35.7503 263.406 33.5917C279.077 11.5217 242.489 4.32629 222.236 3.48731Z" fill="#B6BCA1"/>
<path d="M333.173 5.72766L342.978 9.05582C319.677 45.2661 286.361 51.5083 272.615 50.1031V42.7811C310.449 44.7337 328.751 18.8924 333.173 5.72766Z" fill="#B6BCA1"/>
<path d="M378.305 5.69802C405.988 7.65054 397.722 34.9118 390.128 48.2984C349.468 51.1828 350.621 28.3295 351.486 25.4451C352.351 22.5607 358.119 20.5638 362.733 22.3388C367.347 24.1138 370.519 29.4389 365.616 31.6576C361.694 33.4327 360.522 29.7347 360.426 27.6638C354.889 33.8764 358.695 34.8379 361.291 34.542C363.598 33.8764 369.192 32.8114 373.114 33.8764C377.036 34.9414 375.709 38.3139 374.556 39.8671C368.558 41.6421 368.788 38.0921 369.654 36.0952C366.885 34.8527 365.232 36.6129 364.751 37.6483C364.521 44.3934 375.229 44.1567 380.612 43.1952C378.535 28.2851 358.407 15.5346 348.602 11.0231L347.161 3.923C366.308 6.05302 381.477 26.8503 386.667 36.9827C392.666 28.9951 390.897 21.3773 389.263 18.5669C384.88 18.5669 384.36 21.0815 384.649 22.3388C392.435 21.895 387.533 32.767 382.053 26.7763C377.67 21.9838 383.303 16.2002 386.667 13.9075C385.975 11.0674 382.342 10.3574 380.612 10.3574C388.109 13.2418 378.305 23.6701 373.114 15.9044C368.961 9.69181 374.844 6.51157 378.305 5.69802Z" fill="#B6BCA1"/>
<path d="M349.611 11.9404L347.592 4.17471H337.211L341.248 11.2748C347.015 25.4749 343.074 32.7229 340.383 34.5719C333.693 32.0869 334.904 29.2468 336.346 28.1375C336.576 30.9775 339.71 30.3562 341.248 29.6906C344.478 23.833 338.556 23.1082 335.192 23.478C324.349 30.5781 332.789 37.2344 338.364 39.6751C335.596 44.4676 330.098 44.4824 327.694 43.8907C332.308 42.7813 326.541 32.2357 317.601 37.9001C312.349 41.2282 315.775 47.1449 319.043 48.772C350.187 56.4046 352.398 27.3978 349.611 11.9404Z" fill="#B6BCA1"/>
<path d="M347.303 3.95277C340.844 3.42026 338.845 3.58297 338.652 3.73089L338.941 4.84028L347.592 5.72778L347.303 3.95277Z" fill="#B6BCA1"/>
<path d="M329.05 3.53003L339.343 3.57543L341.321 11.4168L331.493 9.71987C312.276 8.06859 303.779 12.4261 301.933 14.8112C306.378 19.3911 309.771 17.9353 310.912 16.6349C307.244 17.0017 307.44 14.5164 307.996 13.2279C314.854 9.67259 316.907 14.007 317.076 16.6186C310.083 26.1609 299.982 21.0542 295.806 17.308C290.219 20.312 291.247 24.4678 292.46 26.1702C292.997 22.4738 307.55 24.8213 302.026 32.6525C298.78 37.2538 290.579 35.7931 287.88 33.6345C272.209 11.5645 308.797 4.36901 329.05 3.53003Z" fill="#B6BCA1"/>
<path d="M464.482 48.5905L454.678 45.2623C477.978 9.05199 511.295 2.8098 525.04 4.215V11.537C487.206 9.58446 468.904 35.4257 464.482 48.5905Z" fill="#B6BCA1"/>
<path d="M419.351 48.6201C391.667 46.6676 399.934 19.4063 407.527 6.0197C448.188 3.1353 447.034 25.9886 446.169 28.873C445.304 31.7574 439.537 33.7543 434.923 31.9793C430.309 30.2043 427.137 24.8793 432.039 22.6605C435.961 20.8855 437.133 24.5834 437.23 26.6543C442.766 20.4417 438.96 19.4802 436.365 19.7761C434.058 20.4417 428.463 21.5067 424.541 20.4417C420.619 19.3767 421.946 16.0042 423.099 14.451C429.098 12.676 428.867 16.226 428.002 18.2229C430.77 19.4655 432.423 17.7052 432.904 16.6698C433.135 9.92474 422.427 10.1614 417.044 11.1229C419.12 26.033 439.248 38.7835 449.053 43.295L450.495 50.3951C431.347 48.2651 416.179 27.4678 410.988 17.3354C404.99 25.323 406.758 32.9408 408.393 35.7512C412.776 35.7512 413.295 33.2366 413.006 31.9793C405.22 32.4231 410.123 21.5511 415.602 27.5418C419.985 32.3343 414.352 38.1179 410.988 40.4106C411.68 43.2507 415.313 43.9607 417.044 43.9607C409.546 41.0763 419.351 30.6481 424.541 38.4137C428.694 44.6263 422.811 47.8065 419.351 48.6201Z" fill="#B6BCA1"/>
<path d="M448.046 42.3777L450.064 50.1434H460.446L456.408 43.0433C450.641 28.8432 454.582 21.5952 457.273 19.7462C463.964 22.2312 462.753 25.0713 461.311 26.1807C461.08 23.3406 457.946 23.9619 456.408 24.6275C453.179 30.4851 459.1 31.2099 462.464 30.8401C473.307 23.74 464.867 17.0837 459.292 14.643C462.06 9.8505 467.559 9.83571 469.962 10.4274C465.348 11.5368 471.115 22.0825 480.055 16.4181C485.307 13.0899 481.881 7.1732 478.613 5.54611C447.469 -2.08646 445.258 26.9203 448.046 42.3777Z" fill="#B6BCA1"/>
<path d="M450.352 50.3653C456.811 50.8979 458.811 50.7351 459.003 50.5872L458.715 49.4778L450.063 48.5903L450.352 50.3653Z" fill="#B6BCA1"/>
<path d="M468.605 50.7881L458.312 50.7427L456.335 42.9014L466.163 44.5982C485.379 46.2495 493.876 41.892 495.722 39.5069C491.277 34.927 487.884 36.3828 486.744 37.6832C490.411 37.3165 490.215 39.8017 489.659 41.0902C482.801 44.6455 480.748 40.3111 480.579 37.6995C487.572 28.1572 497.673 33.2639 501.849 37.0101C507.436 34.0061 506.408 29.8503 505.195 28.1479C504.659 31.8443 490.105 29.4969 495.629 21.6656C498.875 17.0643 507.077 18.525 509.775 20.6837C525.446 42.7536 488.858 49.9491 468.605 50.7881Z" fill="#B6BCA1"/>
<path d="M579.542 48.5477L589.347 45.2196C566.046 9.00927 532.73 2.76708 518.984 4.17227V11.4943C556.818 9.54174 575.12 35.383 579.542 48.5477Z" fill="#B6BCA1"/>
<path d="M624.675 48.5774C652.358 46.6249 644.092 19.3636 636.498 5.97698C595.838 3.09258 596.991 25.9459 597.856 28.8303C598.721 31.7147 604.489 33.7116 609.103 31.9366C613.717 30.1616 616.889 24.8365 611.986 22.6178C608.065 20.8427 606.892 24.5407 606.796 26.6115C601.259 20.399 605.066 19.4375 607.661 19.7334C609.968 20.399 615.562 21.464 619.484 20.399C623.406 19.334 622.079 15.9614 620.926 14.4083C614.928 12.6333 615.159 16.1833 616.024 18.1802C613.255 19.4227 611.602 17.6625 611.121 16.6271C610.891 9.88201 621.599 10.1187 626.982 11.0802C624.905 25.9903 604.777 38.7408 594.973 43.2523L593.531 50.3524C612.679 48.2224 627.847 27.4251 633.038 17.2927C639.036 25.2803 637.267 32.8981 635.633 35.7085C631.25 35.7085 630.731 33.1939 631.019 31.9366C638.805 32.3803 633.903 21.5084 628.424 27.4991C624.04 32.2916 629.673 38.0752 633.038 40.3679C632.345 43.2079 628.712 43.918 626.982 43.918C634.479 41.0336 624.675 30.6053 619.484 38.371C615.332 44.5836 621.214 47.7638 624.675 48.5774Z" fill="#B6BCA1"/>
<path d="M595.98 42.3352L593.961 50.1009H583.58L587.617 43.0008C593.384 28.8007 589.443 21.5527 586.752 19.7037C580.062 22.1888 581.273 25.0288 582.715 26.1382C582.945 23.2981 586.079 23.9194 587.617 24.585C590.847 30.4426 584.926 31.1674 581.561 30.7976C570.718 23.6975 579.158 17.0412 584.733 14.6006C581.965 9.80802 576.467 9.79323 574.064 10.3849C578.678 11.4943 572.91 22.04 563.971 16.3756C558.718 13.0474 562.144 7.13072 565.412 5.50363C596.557 -2.12894 598.767 26.8778 595.98 42.3352Z" fill="#B6BCA1"/>
<path d="M593.673 50.3226C587.213 50.8551 585.214 50.6924 585.021 50.5445L585.31 49.4351L593.961 48.5476L593.673 50.3226Z" fill="#B6BCA1"/>
<path d="M575.42 50.7454L585.712 50.7L587.69 42.8586L577.862 44.5555C558.645 46.2068 550.148 41.8493 548.302 39.4642C552.747 34.8843 556.14 36.3401 557.281 37.6405C553.613 37.2737 553.809 39.759 554.365 41.0475C561.224 44.6028 563.276 40.2684 563.445 37.6568C556.452 28.1145 546.352 33.2212 542.176 36.9674C536.588 33.9634 537.617 29.8076 538.829 28.1052C539.366 31.8015 553.92 29.4541 548.395 21.6229C545.15 17.0216 536.948 18.4823 534.249 20.6409C518.578 42.7109 555.167 49.9064 575.42 50.7454Z" fill="#B6BCA1"/>
<path d="M710.751 5.23182L700.946 8.55997C724.247 44.7703 757.563 51.0125 771.309 49.6073V42.2853C733.475 44.2378 715.173 18.3965 710.751 5.23182Z" fill="#B6BCA1"/>
<path d="M665.619 5.20217C637.936 7.15469 646.202 34.416 653.796 47.8026C694.456 50.687 693.303 27.8336 692.438 24.9492C691.573 22.0648 685.805 20.0679 681.191 21.8429C676.577 23.618 673.405 28.943 678.308 31.1618C682.229 32.9368 683.402 29.2388 683.498 27.168C689.035 33.3806 685.228 34.342 682.633 34.0462C680.326 33.3806 674.732 32.3155 670.81 33.3806C666.888 34.4456 668.215 37.8181 669.368 39.3712C675.366 41.1463 675.135 37.5962 674.27 35.5993C677.039 34.3568 678.692 36.117 679.173 37.1525C679.403 43.8975 668.695 43.6609 663.312 42.6994C665.388 27.7893 685.517 15.0387 695.321 10.5272L696.763 3.42715C677.615 5.55717 662.447 26.3544 657.256 36.4868C651.258 28.4993 653.027 20.8815 654.661 18.071C659.044 18.071 659.563 20.5856 659.275 21.8429C651.489 21.3992 656.391 32.2712 661.87 26.2805C666.254 21.4879 660.621 15.7043 657.256 13.4116C657.949 10.5716 661.582 9.86159 663.312 9.86159C655.815 12.746 665.619 23.1742 670.81 15.4085C674.962 9.19596 669.08 6.01572 665.619 5.20217Z" fill="#B6BCA1"/>
<path d="M694.314 11.4446L696.333 3.67886H706.714L702.677 10.779C696.909 24.9791 700.851 32.2271 703.542 34.076C710.232 31.591 709.021 28.751 707.579 27.6416C707.349 30.4816 704.215 29.8604 702.677 29.1948C699.447 23.3372 705.368 22.6124 708.733 22.9822C719.575 30.0823 711.136 36.7386 705.561 39.1792C708.329 43.9718 713.827 43.9866 716.23 43.3949C711.616 42.2855 717.384 31.7398 726.323 37.4042C731.576 40.7324 728.15 46.6491 724.881 48.2762C693.737 55.9087 691.527 26.902 694.314 11.4446Z" fill="#B6BCA1"/>
<path d="M696.62 3.45692C703.08 2.92441 705.079 3.08712 705.272 3.23504L704.983 4.34443L696.332 5.23193L696.62 3.45692Z" fill="#B6BCA1"/>
<path d="M714.873 3.03418L704.581 3.07958L702.603 10.9209L712.431 9.22402C731.648 7.57274 740.144 11.9302 741.991 14.3154C737.546 18.8953 734.153 17.4395 733.012 16.1391C736.68 16.5058 736.484 14.0206 735.928 12.7321C729.069 9.17674 727.017 13.5111 726.848 16.1227C733.841 25.6651 743.941 20.5583 748.117 16.8122C753.705 19.8161 752.676 23.9719 751.464 25.6744C750.927 21.978 736.373 24.3254 741.898 32.1567C745.143 36.758 753.345 35.2972 756.044 33.1386C771.715 11.0686 735.126 3.87316 714.873 3.03418Z" fill="#B6BCA1"/>
<path d="M825.811 5.27454L835.615 8.6027C812.315 44.813 778.998 51.0552 765.253 49.65V42.328C803.087 44.2805 821.389 18.4392 825.811 5.27454Z" fill="#B6BCA1"/>
<path d="M870.943 5.2449C898.627 7.19741 890.36 34.4587 882.767 47.8453C842.106 50.7297 843.26 27.8764 844.125 24.992C844.99 22.1075 850.757 20.1107 855.371 21.8857C859.985 23.6607 863.157 28.9857 858.255 31.2045C854.333 32.9795 853.16 29.2816 853.064 27.2107C847.528 33.4233 851.334 34.3847 853.929 34.0889C856.236 33.4233 861.831 32.3583 865.753 33.4233C869.674 34.4883 868.348 37.8608 867.194 39.414C861.196 41.189 861.427 37.6389 862.292 35.642C859.524 34.3995 857.871 36.1598 857.39 37.1952C857.159 43.9403 867.867 43.7036 873.25 42.7421C871.174 27.832 851.046 15.0814 841.241 10.5699L839.799 3.46988C858.947 5.5999 874.115 26.3972 879.306 36.5296C885.304 28.542 883.536 20.9242 881.901 18.1138C877.518 18.1138 876.999 20.6284 877.287 21.8857C885.074 21.4419 880.171 32.3139 874.692 26.3232C870.309 21.5307 875.942 15.7471 879.306 13.4543C878.614 10.6143 874.981 9.90431 873.25 9.90431C880.748 12.7887 870.943 23.2169 865.753 15.4512C861.6 9.23868 867.483 6.05844 870.943 5.2449Z" fill="#B6BCA1"/>
<path d="M842.248 11.487L840.23 3.72134H829.848L833.886 10.8214C839.653 25.0216 835.712 32.2696 833.02 34.1185C826.33 31.6335 827.541 28.7935 828.983 27.6841C829.214 30.5241 832.348 29.9029 833.886 29.2372C837.115 23.3797 831.194 22.6549 827.83 23.0247C816.987 30.1247 825.427 36.7811 831.002 39.2217C828.234 44.0142 822.735 44.029 820.332 43.4374C824.946 42.328 819.179 31.7823 810.239 37.4467C804.987 40.7748 808.413 46.6915 811.681 48.3186C842.825 55.9512 845.036 26.9445 842.248 11.487Z" fill="#B6BCA1"/>
<path d="M839.941 3.49964C833.482 2.96714 831.482 3.12985 831.29 3.27776L831.578 4.38715L840.229 5.27466L839.941 3.49964Z" fill="#B6BCA1"/>
<path d="M821.688 3.07691L831.981 3.12231L833.958 10.9636L824.13 9.26674C804.914 7.61547 796.417 11.9729 794.571 14.3581C799.016 18.938 802.409 17.4822 803.549 16.1818C799.882 16.5485 800.078 14.0633 800.634 12.7748C807.492 9.21947 809.545 13.5538 809.714 16.1655C802.721 25.7078 792.62 20.6011 788.444 16.8549C782.857 19.8589 783.885 24.0147 785.098 25.7171C785.634 22.0207 800.188 24.3681 794.664 32.1994C791.418 36.8007 783.216 35.3399 780.518 33.1813C764.847 11.1113 801.435 3.91589 821.688 3.07691Z" fill="#B6BCA1"/>
<path d="M957.019 47.7032L947.215 44.3751C970.515 8.16479 1003.83 1.9226 1017.58 3.32779V10.6498C979.743 8.69726 961.441 34.5385 957.019 47.7032Z" fill="#B6BCA1"/>
<path d="M911.888 47.7326C884.204 45.7801 892.471 18.5188 900.065 5.13225C940.725 2.24785 939.571 25.1012 938.706 27.9856C937.841 30.87 932.074 32.8669 927.46 31.0919C922.846 29.3168 919.674 23.9918 924.576 21.773C928.498 19.998 929.671 23.696 929.767 25.7668C935.303 19.5543 931.497 18.5928 928.902 18.8886C926.595 19.5543 921 20.6193 917.078 19.5543C913.157 18.4893 914.483 15.1167 915.637 13.5636C921.635 11.7886 921.404 15.3386 920.539 17.3355C923.307 18.578 924.961 16.8178 925.441 15.7824C925.672 9.03729 914.964 9.27396 909.581 10.2354C911.657 25.1456 931.785 37.8961 941.59 42.4076L943.032 49.5077C923.884 47.3776 908.716 26.5804 903.525 16.448C897.527 24.4356 899.296 32.0533 900.93 34.8638C905.313 34.8638 905.832 32.3492 905.544 31.0919C897.758 31.5356 902.66 20.6636 908.139 26.6543C912.522 31.4469 906.889 37.2305 903.525 39.5232C904.217 42.3632 907.851 43.0732 909.581 43.0732C902.083 40.1888 911.888 29.7606 917.078 37.5263C921.231 43.7389 915.348 46.9191 911.888 47.7326Z" fill="#B6BCA1"/>
<path d="M940.583 41.4905L942.601 49.2562H952.983L948.945 42.1561C943.178 27.956 947.119 20.708 949.811 18.859C956.501 21.344 955.29 24.1841 953.848 25.2934C953.617 22.4534 950.483 23.0747 948.945 23.7403C945.716 29.5979 951.637 30.3227 955.001 29.9529C965.844 22.8528 957.404 16.1965 951.829 13.7558C954.598 8.96329 960.096 8.9485 962.499 9.54018C957.885 10.6496 963.652 21.1953 972.592 15.5309C977.844 12.2027 974.418 6.286 971.15 4.65891C940.006 -2.97367 937.795 26.0331 940.583 41.4905Z" fill="#B6BCA1"/>
<path d="M942.889 49.4779C949.348 50.0104 951.348 49.8477 951.54 49.6998L951.252 48.5904L942.601 47.7029L942.889 49.4779Z" fill="#B6BCA1"/>
<path d="M961.142 49.9009L950.849 49.8555L948.872 42.0142L958.7 43.711C977.916 45.3623 986.413 41.0048 988.259 38.6197C983.814 34.0398 980.422 35.4956 979.281 36.796C982.948 36.4293 982.753 38.9145 982.196 40.203C975.338 43.7583 973.285 39.4239 973.116 36.8123C980.11 27.27 990.21 32.3767 994.386 36.1229C999.973 33.1189 998.945 28.9631 997.732 27.2607C997.196 30.9571 982.642 28.6096 988.166 20.7784C991.412 16.1771 999.614 17.6378 1002.31 19.7964C1017.98 41.8664 981.395 49.0619 961.142 49.9009Z" fill="#B6BCA1"/>
<path d="M1072.08 47.6605L1081.88 44.3324C1058.58 8.12206 1025.27 1.87987 1011.52 3.28506V10.607C1049.36 8.65453 1067.66 34.4958 1072.08 47.6605Z" fill="#B6BCA1"/>
<path d="M1117.21 47.6902C1144.9 45.7376 1136.63 18.4764 1129.04 5.08977C1088.37 2.20537 1089.53 25.0587 1090.39 27.9431C1091.26 30.8275 1097.03 32.8244 1101.64 31.0494C1106.25 29.2744 1109.43 23.9493 1104.52 21.7305C1100.6 19.9555 1099.43 23.6535 1099.33 25.7243C1093.8 19.5118 1097.6 18.5503 1100.2 18.8461C1102.5 19.5118 1108.1 20.5768 1112.02 19.5118C1115.94 18.4468 1114.62 15.0742 1113.46 13.5211C1107.46 11.7461 1107.7 15.2961 1108.56 17.293C1105.79 18.5355 1104.14 16.7753 1103.66 15.7399C1103.43 8.99481 1114.14 9.23148 1119.52 10.1929C1117.44 25.1031 1097.31 37.8536 1087.51 42.3651L1086.07 49.4652C1105.22 47.3352 1120.38 26.5379 1125.57 16.4055C1131.57 24.3931 1129.8 32.0109 1128.17 34.8213C1123.79 34.8213 1123.27 32.3067 1123.56 31.0494C1131.34 31.4931 1126.44 20.6212 1120.96 26.6118C1116.58 31.4044 1122.21 37.188 1125.57 39.4807C1124.88 42.3207 1121.25 43.0307 1119.52 43.0307C1127.02 40.1463 1117.21 29.7181 1112.02 37.4838C1107.87 43.6964 1113.75 46.8766 1117.21 47.6902Z" fill="#B6BCA1"/>
<path d="M1088.52 41.4478L1086.5 49.2135H1076.12L1080.15 42.1134C1085.92 27.9132 1081.98 20.6653 1079.29 18.8163C1072.6 21.3013 1073.81 24.1413 1075.25 25.2507C1075.48 22.4107 1078.62 23.0319 1080.15 23.6976C1083.38 29.5551 1077.46 30.2799 1074.1 29.9101C1063.26 22.8101 1071.7 16.1538 1077.27 13.7131C1074.5 8.92057 1069 8.90578 1066.6 9.49745C1071.21 10.6068 1065.45 21.1525 1056.51 15.4881C1051.26 12.16 1054.68 6.24327 1057.95 4.61618C1089.09 -3.01639 1091.3 25.9903 1088.52 41.4478Z" fill="#B6BCA1"/>
<path d="M1086.21 49.4352C1079.75 49.9677 1077.75 49.805 1077.56 49.657L1077.85 48.5477L1086.5 47.6602L1086.21 49.4352Z" fill="#B6BCA1"/>
<path d="M1067.96 49.8581L1078.25 49.8128L1080.23 41.9714L1070.4 43.6683C1051.18 45.3196 1042.69 40.9621 1040.84 38.577C1045.28 33.9971 1048.68 35.4529 1049.82 36.7533C1046.15 36.3865 1046.35 38.8718 1046.9 40.1603C1053.76 43.7156 1055.81 39.3812 1055.98 36.7696C1048.99 27.2273 1038.89 32.334 1034.71 36.0802C1029.13 33.0762 1030.15 28.9204 1031.37 27.218C1031.9 30.9143 1046.46 28.5669 1040.93 20.7357C1037.69 16.1343 1029.48 17.5951 1026.79 19.7537C1011.12 41.8237 1047.7 49.0192 1067.96 49.8581Z" fill="#B6BCA1"/>
<path d="M1203.29 4.34436L1193.48 7.67252C1216.78 43.8828 1250.1 50.125 1263.85 48.7198V41.3978C1226.01 43.3504 1207.71 17.5091 1203.29 4.34436Z" fill="#B6BCA1"/>
<path d="M1158.16 4.31472C1130.47 6.26724 1138.74 33.5285 1146.33 46.9151C1186.99 49.7995 1185.84 26.9462 1184.97 24.0618C1184.11 21.1774 1178.34 19.1805 1173.73 20.9555C1169.11 22.7305 1165.94 28.0556 1170.84 30.2743C1174.77 32.0493 1175.94 28.3514 1176.04 26.2805C1181.57 32.4931 1177.77 33.4546 1175.17 33.1587C1172.86 32.4931 1167.27 31.4281 1163.35 32.4931C1159.43 33.5581 1160.75 36.9306 1161.91 38.4838C1167.9 40.2588 1167.67 36.7088 1166.81 34.7119C1169.58 33.4694 1171.23 35.2296 1171.71 36.265C1171.94 43.0101 1161.23 42.7734 1155.85 41.8119C1157.93 26.9018 1178.05 14.1513 1187.86 9.63977L1189.3 2.5397C1170.15 4.66972 1154.98 25.467 1149.79 35.5994C1143.8 27.6118 1145.56 19.994 1147.2 17.1836C1151.58 17.1836 1152.1 19.6982 1151.81 20.9555C1144.03 20.5117 1148.93 31.3837 1154.41 25.393C1158.79 20.6005 1153.16 14.8169 1149.79 12.5242C1150.49 9.68414 1154.12 8.97414 1155.85 8.97414C1148.35 11.8585 1158.16 22.2868 1163.35 14.5211C1167.5 8.30851 1161.62 5.12827 1158.16 4.31472Z" fill="#B6BCA1"/>
<path d="M1186.85 10.5569L1188.87 2.79117H1199.25L1195.21 9.89126C1189.45 24.0914 1193.39 31.3394 1196.08 33.1884C1202.77 30.7033 1201.56 27.8633 1200.12 26.7539C1199.89 29.5939 1196.75 28.9727 1195.21 28.3071C1191.98 22.4495 1197.91 21.7247 1201.27 22.0945C1212.11 29.1946 1203.67 35.8509 1198.1 38.2915C1200.87 43.0841 1206.36 43.0989 1208.77 42.5072C1204.15 41.3978 1209.92 30.8521 1218.86 36.5165C1224.11 39.8447 1220.69 45.7614 1217.42 47.3885C1186.27 55.021 1184.06 26.0143 1186.85 10.5569Z" fill="#B6BCA1"/>
<path d="M1189.16 2.56947C1195.62 2.03696 1197.62 2.19967 1197.81 2.34759L1197.52 3.45697L1188.87 4.34448L1189.16 2.56947Z" fill="#B6BCA1"/>
<path d="M1207.41 2.14673L1197.12 2.19213L1195.14 10.0335L1204.97 8.33657C1224.18 6.68529 1232.68 11.0428 1234.53 13.4279C1230.08 18.0078 1226.69 16.552 1225.55 15.2516C1229.22 15.6184 1229.02 13.1331 1228.46 11.8446C1221.61 8.28929 1219.55 12.6237 1219.38 15.2353C1226.38 24.7776 1236.48 19.6709 1240.65 15.9247C1246.24 18.9287 1245.21 23.0845 1244 24.7869C1243.46 21.0905 1228.91 23.438 1234.43 31.2692C1237.68 35.8705 1245.88 34.4098 1248.58 32.2512C1264.25 10.1812 1227.66 2.98571 1207.41 2.14673Z" fill="#B6BCA1"/>
<path d="M1318.35 4.38684L1328.15 7.715C1304.85 43.9253 1271.54 50.1675 1257.79 48.7623V41.4403C1295.63 43.3928 1313.93 17.5515 1318.35 4.38684Z" fill="#B6BCA1"/>
<path d="M1314.23 2.18921L1324.52 2.23461L1326.5 10.0759L1316.67 8.37905C1297.45 6.72777 1288.95 11.0852 1287.11 13.4704C1291.55 18.0503 1294.95 16.5945 1296.09 15.2941C1292.42 15.6608 1292.61 13.1756 1293.17 11.8871C1300.03 8.33177 1302.08 12.6662 1302.25 15.2778C1295.26 24.8201 1285.16 19.7134 1280.98 15.9672C1275.39 18.9712 1276.42 23.127 1277.63 24.8294C1278.17 21.133 1292.73 23.4804 1287.2 31.3117C1283.96 35.913 1275.75 34.4522 1273.05 32.2936C1257.38 10.2236 1293.97 3.02819 1314.23 2.18921Z" fill="#B6BCA1"/>
</svg>
