<svg width="69" height="817" viewBox="0 0 69 817" fill="none" xmlns="http://www.w3.org/2000/svg">
<path d="M55.7226 17.6264C53.5732 45.2954 26.3714 36.835 13.0392 29.1462C10.4442 -11.5336 33.2887 -10.2175 36.1669 -9.33193C39.0451 -8.44631 41.0009 -2.66483 39.1931 1.93636C37.3853 6.53755 32.0378 9.67166 29.854 4.75369C28.1069 0.819311 31.8131 -0.327052 33.8846 -0.408441C27.7116 -5.98923 26.7231 -2.18967 27.0004 0.40771C27.6496 2.71935 28.6748 8.32119 27.5819 12.2354C26.489 16.1495 23.126 14.7991 21.5811 13.6345C19.8488 7.62395 23.3971 7.8799 25.3878 8.7592C26.65 5.99975 24.9016 4.33395 23.8696 3.84597C17.1264 3.56729 17.2868 14.2769 18.21 19.6665C33.1345 17.6964 46.0279 -2.34068 50.6091 -12.1129L57.7192 -13.5042C55.453 5.62795 34.5483 20.6479 24.3793 25.7663C32.324 31.8211 39.9541 30.1067 42.7761 28.4927C42.8073 24.1095 40.2965 23.5726 39.0371 23.852C39.4255 31.641 28.5887 26.6614 34.6182 21.2252C39.4418 16.8761 45.1852 22.55 47.4539 25.9305C50.2988 25.2587 51.0346 21.6303 51.0469 19.9002C48.1092 27.3771 37.7511 17.4985 45.5535 12.3632C51.7954 8.25502 54.9337 14.1603 55.7226 17.6264Z" fill="#C28A70"/>
<path d="M12.2182 103.496L15.616 93.7154C51.6596 117.273 57.6646 150.633 56.1616 164.368L48.8398 164.316C51.0615 126.497 25.3511 108.011 12.2182 103.496Z" fill="#C28A70"/>
<path d="M12.5098 58.3653C14.6592 30.6963 41.861 39.1567 55.1932 46.8455C57.7882 87.5253 34.9437 86.2092 32.0655 85.3236C29.1873 84.438 27.2315 78.6565 29.0393 74.0553C30.8471 69.4541 36.1946 66.32 38.3784 71.238C40.1255 75.1724 36.4193 76.3188 34.3478 76.4001C40.5208 81.9809 41.5093 78.1814 41.232 75.584C40.5828 73.2723 39.5576 67.6705 40.6505 63.7563C41.7434 59.8422 45.1064 61.1926 46.6513 62.3572C48.3836 68.3677 44.8353 68.1118 42.8446 67.2325C41.5824 69.9919 43.3308 71.6578 44.3628 72.1457C51.1061 72.4244 50.9456 61.7148 50.0224 56.3252C35.0979 58.2953 22.2045 78.3324 17.6233 88.1046L10.5132 89.4959C12.7794 70.3637 33.6841 55.3438 43.8531 50.2254C35.9084 44.1706 28.2783 45.885 25.4563 47.499C25.4251 51.8822 27.9359 52.4191 29.1953 52.1397C28.8069 44.3507 39.6437 49.3303 33.6142 54.7665C28.7906 59.1156 23.0472 53.4417 20.7785 50.0612C17.9336 50.733 17.1978 54.3614 17.1855 56.0915C20.1232 48.6146 30.4813 58.4932 22.6789 63.6285C16.437 67.7367 13.2987 61.8314 12.5098 58.3653Z" fill="#C28A70"/>
<path d="M18.5476 87.1039L10.7678 89.0672L10.6939 99.4483L17.8225 95.4617C32.0634 89.7955 39.2831 93.788 41.1129 96.4926C38.5803 103.165 35.749 101.934 34.6499 100.484C37.4915 100.273 36.8925 97.1354 36.2379 95.5928C30.4034 92.3214 29.6365 98.2373 29.9824 101.604C37.0051 112.497 43.7213 104.105 46.2016 98.5474C50.9743 101.35 50.95 106.848 50.3412 109.247C49.2647 104.625 38.6782 110.317 44.2789 119.297C47.5696 124.573 53.5105 121.189 55.1608 117.933C63.0148 86.8435 34.0245 84.4264 18.5476 87.1039Z" fill="#C28A70"/>
<path d="M10.544 89.3536C9.96552 95.8092 10.114 97.8097 10.2605 98.0029L11.372 97.7225L12.321 89.0779L10.544 89.3536Z" fill="#C28A70"/>
<path d="M9.99128 107.603L10.1099 97.3111L17.9651 95.3894L16.1983 105.205C14.4104 124.409 18.7073 132.937 21.0792 134.8C25.6906 130.388 24.259 126.985 22.9668 125.835C23.3074 129.505 20.8236 129.291 19.5391 128.726C16.0327 121.842 20.3815 119.821 22.9943 119.67C32.4866 126.731 27.3081 136.795 23.5324 140.944C26.4965 146.553 30.6595 145.554 32.3705 144.354C28.6781 143.791 31.129 129.254 38.9207 134.834C43.4988 138.112 41.9797 146.303 39.802 148.987C17.621 164.5 10.6861 127.862 9.99128 107.603Z" fill="#C28A70"/>
<path d="M11.4422 218.553L14.7005 228.381C51.0756 205.339 57.5547 172.068 56.2474 158.313L48.9256 158.261C50.6088 196.108 24.638 214.226 11.4422 218.553Z" fill="#C28A70"/>
<path d="M11.0914 263.684C12.8469 291.381 40.1663 283.308 53.6066 275.81C56.7803 235.171 33.9193 236.162 31.0288 237.007C28.1383 237.851 26.1005 243.604 27.8426 248.231C29.5847 252.857 34.8871 256.067 37.1407 251.181C38.9436 247.272 35.254 246.073 33.1839 245.962C39.4357 240.469 40.3701 244.283 40.0558 246.876C39.3738 249.178 38.269 254.765 39.306 258.694C40.3431 262.623 43.725 261.321 45.2863 260.178C47.104 254.193 43.5524 254.399 41.5494 255.249C40.3266 252.472 42.0985 250.832 43.1374 250.358C49.8839 250.176 49.571 260.882 48.5713 266.258C33.6763 264.075 21.0693 243.857 16.6277 234.02L9.53807 232.528C11.5318 251.691 32.2206 267.007 42.3158 272.269C34.2857 278.21 26.6807 276.388 23.882 274.733C23.9132 270.35 26.4314 269.849 27.6866 270.146C27.1875 277.929 38.0941 273.104 32.1425 267.583C27.3813 263.166 21.5578 268.757 19.2412 272.105C16.4061 271.393 15.722 267.754 15.7343 266.024C18.5653 273.542 29.063 263.812 21.3345 258.566C15.1516 254.37 11.9296 260.229 11.0914 263.684Z" fill="#C28A70"/>
<path d="M17.5377 235.035L9.78654 232.961L9.86041 222.58L16.9316 226.667C31.0903 232.536 38.3662 228.646 40.2343 225.968C37.7969 219.26 34.9483 220.451 33.8287 221.885C36.667 222.136 36.0235 225.265 35.3469 226.798C29.4665 229.986 28.7839 224.06 29.1776 220.699C36.3547 209.907 42.9507 218.393 45.3517 223.986C50.1638 221.252 50.2177 215.754 49.6431 213.346C48.5009 217.952 37.9966 212.11 43.7244 203.211C47.0899 197.982 52.982 201.451 54.5858 204.73C61.9966 235.928 32.9749 237.932 17.5377 235.035Z" fill="#C28A70"/>
<path d="M9.56684 232.671C9.08031 226.208 9.25724 224.209 9.40653 224.018L10.5138 224.314L11.3398 232.972L9.56684 232.671Z" fill="#C28A70"/>
<path d="M9.27391 214.415L9.24606 224.708L17.0731 226.741L15.4462 216.902C13.9317 197.674 18.3495 189.208 20.7478 187.379C25.2959 191.856 23.816 195.239 22.5075 196.37C22.9004 192.706 20.4138 192.884 19.1214 193.431C15.5173 200.264 19.837 202.347 22.4473 202.535C32.0392 195.609 27.0044 185.473 23.2881 181.27C26.3317 175.704 30.4801 176.762 32.1739 177.987C28.4738 178.497 30.7176 193.068 38.588 187.599C43.2122 184.386 41.8099 176.174 39.6705 173.46C17.7126 157.633 10.257 194.169 9.27391 214.415Z" fill="#C28A70"/>
<path d="M53.8234 350.067L50.5651 340.239C14.19 363.281 7.71086 396.552 9.01821 410.308L16.34 410.36C14.6568 372.513 40.6276 354.395 53.8234 350.067Z" fill="#C28A70"/>
<path d="M54.1742 304.937C52.4187 277.24 25.0993 285.312 11.659 292.811C8.48533 333.45 31.3463 332.459 34.2368 331.614C37.1273 330.77 39.1651 325.016 37.423 320.39C35.6809 315.764 30.3785 312.554 28.1249 317.44C26.322 321.349 30.0116 322.548 32.0817 322.659C25.8299 328.151 24.8955 324.338 25.2098 321.745C25.8918 319.443 26.9966 313.856 25.9596 309.927C24.9225 305.998 21.5406 307.3 19.9793 308.442C18.1616 314.428 21.7132 314.222 23.7162 313.371C24.939 316.149 23.1671 317.789 22.1282 318.263C15.3817 318.445 15.6946 307.739 16.6943 302.363C31.5893 304.545 44.1963 324.764 48.6379 334.6L55.7275 336.093C53.7338 316.93 33.045 301.614 22.9498 296.352C30.9799 290.411 38.5849 292.233 41.3836 293.887C41.3524 298.271 38.8342 298.772 37.579 298.474C38.0781 290.692 27.1715 295.517 33.1231 301.038C37.8843 305.455 43.7078 299.864 46.0244 296.516C48.8595 297.228 49.5436 300.867 49.5313 302.597C46.7003 295.079 36.2026 304.809 43.9311 310.055C50.114 314.251 53.336 308.391 54.1742 304.937Z" fill="#C28A70"/>
<path d="M47.7279 333.586L55.4791 335.66L55.4052 346.041L48.334 341.954C34.1753 336.085 26.8994 339.975 25.0313 342.653C27.4687 349.361 30.3173 348.17 31.4369 346.736C28.5986 346.485 29.2421 343.356 29.9187 341.823C35.7991 338.635 36.4817 344.561 36.088 347.922C28.9109 358.714 22.3149 350.228 19.9139 344.635C15.1018 347.369 15.0479 352.867 15.6225 355.275C16.7646 350.669 27.269 356.511 21.5412 365.41C18.1757 370.639 12.2835 367.171 10.6798 363.891C3.26899 332.693 32.2907 330.689 47.7279 333.586Z" fill="#C28A70"/>
<path d="M55.6988 335.95C56.1853 342.413 56.0084 344.411 55.8591 344.602L54.7518 344.306L53.9258 335.649L55.6988 335.95Z" fill="#C28A70"/>
<path d="M55.9917 354.205L56.0195 343.913L48.1925 341.879L49.8194 351.719C51.3339 370.947 46.9161 379.413 44.5178 381.242C39.9697 376.764 41.4496 373.382 42.7581 372.251C42.3652 375.915 44.8518 375.737 46.1442 375.19C49.7483 368.357 45.4286 366.274 42.8183 366.086C33.2264 373.012 38.2612 383.148 41.9775 387.351C38.9339 392.916 34.7855 391.858 33.0917 390.634C36.7918 390.123 34.548 375.553 26.6776 381.022C22.0534 384.235 23.4557 392.447 25.5951 395.16C47.553 410.988 55.0086 374.452 55.9917 354.205Z" fill="#C28A70"/>
<path d="M52.962 465.124L49.5642 474.905C13.5206 451.347 7.51565 417.987 9.01861 404.252L16.3404 404.304C14.1187 442.123 39.8291 460.609 52.962 465.124Z" fill="#C28A70"/>
<path d="M52.6705 510.255C50.521 537.924 23.3192 529.464 9.98703 521.775C7.39203 481.095 30.2366 482.411 33.1147 483.297C35.9929 484.182 37.9487 489.964 36.1409 494.565C34.3331 499.166 28.9856 502.3 26.8018 497.382C25.0547 493.448 28.7609 492.302 30.8324 492.22C24.6594 486.639 23.6709 490.439 23.9483 493.036C24.5975 495.348 25.6226 500.95 24.5297 504.864C23.4369 508.778 20.0738 507.428 18.529 506.263C16.7967 500.253 20.345 500.509 22.3356 501.388C23.5978 498.628 21.8494 496.963 20.8174 496.475C14.0742 496.196 14.2346 506.906 15.1578 512.295C30.0823 510.325 42.9758 490.288 47.5569 480.516L54.6671 479.124C52.4008 498.257 31.4962 513.277 21.3271 518.395C29.2718 524.45 36.902 522.735 39.724 521.121C39.7551 516.738 37.2443 516.201 35.985 516.481C36.3733 524.27 25.5365 519.29 31.566 513.854C36.3896 509.505 42.133 515.179 44.4017 518.559C47.2466 517.887 47.9824 514.259 47.9948 512.529C45.0571 520.006 34.6989 510.127 42.5013 504.992C48.7433 500.884 51.8816 506.789 52.6705 510.255Z" fill="#C28A70"/>
<path d="M46.6326 481.517L54.4125 479.553L54.4863 469.172L47.3577 473.159C33.1169 478.825 25.8971 474.833 24.0673 472.128C26.5999 465.456 29.4312 466.687 30.5303 468.137C27.6887 468.347 28.2877 471.485 28.9424 473.028C34.7768 476.299 35.5437 470.383 35.1978 467.016C28.1751 456.123 21.4589 464.516 18.9787 470.073C14.2059 467.271 14.2303 461.773 14.839 459.374C15.9156 463.995 26.502 458.303 20.9014 449.324C17.6107 444.048 11.6697 447.432 10.0194 450.688C2.16545 481.777 31.1557 484.194 46.6326 481.517Z" fill="#C28A70"/>
<path d="M54.6363 479.267C55.2147 472.811 55.0662 470.81 54.9197 470.617L53.8083 470.898L52.8592 479.542L54.6363 479.267Z" fill="#C28A70"/>
<path d="M55.189 461.017L55.0703 471.309L47.2151 473.231L48.9819 463.415C50.7699 444.211 46.473 435.683 44.101 433.82C39.4896 438.232 40.9212 441.636 42.2135 442.786C41.8728 439.116 44.3566 439.329 45.6411 439.894C49.1476 446.778 44.7987 448.8 42.1859 448.95C32.6936 441.889 37.8721 431.825 41.6479 427.676C38.6837 422.067 34.5207 423.066 32.8097 424.267C36.5022 424.83 34.0513 439.366 26.2595 433.786C21.6814 430.508 23.2005 422.317 25.3782 419.634C47.5592 404.12 54.4941 440.759 55.189 461.017Z" fill="#C28A70"/>
<path d="M9.60084 596.028L12.9987 586.247C49.0423 609.805 55.0472 643.165 53.5443 656.9L46.2225 656.848C48.4441 619.028 22.7337 600.543 9.60084 596.028Z" fill="#C28A70"/>
<path d="M9.8924 550.897C12.0419 523.228 39.2436 531.688 52.5758 539.377C55.1708 580.057 32.3263 578.741 29.4481 577.855C26.57 576.97 24.6141 571.188 26.422 566.587C28.2298 561.986 33.5772 558.852 35.7611 563.77C37.5081 567.704 33.8019 568.85 31.7304 568.932C37.9035 574.512 38.892 570.713 38.6146 568.115C37.9654 565.804 36.9402 560.202 38.0331 556.288C39.126 552.374 42.489 553.724 44.0339 554.889C45.7662 560.899 42.2179 560.643 40.2272 559.764C38.965 562.523 40.7135 564.189 41.7454 564.677C48.4887 564.956 48.3282 554.246 47.4051 548.857C32.4806 550.827 19.5871 570.864 15.006 580.636L7.89582 582.027C10.162 562.895 31.0667 547.875 41.2358 542.757C33.2911 536.702 25.6609 538.416 22.8389 540.031C22.8077 544.414 25.3186 544.951 26.5779 544.671C26.1896 536.882 37.0264 541.862 30.9969 547.298C26.1732 551.647 20.4299 545.973 18.1611 542.593C15.3163 543.265 14.5804 546.893 14.5681 548.623C17.5058 541.146 27.864 551.025 20.0616 556.16C13.8196 560.268 10.6813 554.363 9.8924 550.897Z" fill="#C28A70"/>
<path d="M15.9303 579.635L8.15042 581.599L8.07655 591.98L15.2052 587.993C29.446 582.327 36.6658 586.32 38.4955 589.024C35.963 595.696 33.1316 594.465 32.0325 593.015C34.8741 592.805 34.2752 589.667 33.6205 588.124C27.7861 584.853 27.0192 590.769 27.365 594.136C34.3878 605.029 41.104 596.637 43.5842 591.079C48.3569 593.881 48.3326 599.38 47.7238 601.778C46.6473 597.157 36.0609 602.849 41.6615 611.828C44.9522 617.104 50.8931 613.721 52.5434 610.464C60.3974 579.375 31.4072 576.958 15.9303 579.635Z" fill="#C28A70"/>
<path d="M7.92662 581.885C7.34816 588.341 7.49664 590.341 7.64319 590.535L8.7546 590.254L9.70364 581.61L7.92662 581.885Z" fill="#C28A70"/>
<path d="M7.37392 600.135L7.49255 589.843L15.3477 587.921L13.581 597.737C11.793 616.941 16.0899 625.468 18.4619 627.332C23.0733 622.919 21.6416 619.516 20.3494 618.366C20.69 622.036 18.2062 621.823 16.9217 621.257C13.4153 614.374 17.7642 612.352 20.3769 612.202C29.8692 619.263 24.6908 629.327 20.915 633.476C23.8791 639.085 28.0422 638.086 29.7532 636.885C26.0607 636.322 28.5116 621.786 36.3034 627.365C40.8815 630.644 39.3624 638.835 37.1846 641.518C15.0037 657.032 8.06876 620.393 7.37392 600.135Z" fill="#C28A70"/>
<path d="M8.8248 711.085L12.0831 720.913C48.4583 697.871 54.9374 664.6 53.63 650.845L46.3082 650.792C47.9915 688.64 22.0206 706.757 8.8248 711.085Z" fill="#C28A70"/>
<path d="M8.47408 756.216C10.2296 783.913 37.549 775.84 50.9893 768.342C54.1629 727.703 31.3019 728.694 28.4115 729.538C25.521 730.383 23.4831 736.136 25.2252 740.763C26.9674 745.389 32.2697 748.599 34.5233 743.713C36.3262 739.803 32.6367 738.604 30.5666 738.494C36.8184 733.001 37.7527 736.814 37.4384 739.408C36.7564 741.71 35.6516 747.296 36.6887 751.226C37.7258 755.155 41.1076 753.853 42.6689 752.71C44.4866 746.725 40.935 746.93 38.932 747.781C37.7092 745.004 39.4812 743.363 40.52 742.89C47.2665 742.707 46.9537 753.414 45.9539 758.79C31.0589 756.607 18.452 736.389 14.0103 726.552L6.92071 725.06C8.91443 744.222 29.6032 759.538 39.6984 764.801C31.6684 770.742 24.0634 768.919 21.2646 767.265C21.2958 762.882 23.8141 762.381 25.0693 762.678C24.5701 770.461 35.4767 765.636 29.5252 760.115C24.764 755.697 18.9404 761.289 16.6238 764.637C13.7888 763.924 13.1046 760.286 13.117 758.556C15.9479 766.074 26.4457 756.344 18.7171 751.098C12.5342 746.901 9.31223 752.761 8.47408 756.216Z" fill="#C28A70"/>
<path d="M14.9203 727.566L7.16918 725.493L7.24305 715.112L14.3142 719.199C28.473 725.067 35.7488 721.178 37.6169 718.5C35.1795 711.792 32.331 712.983 31.2113 714.417C34.0497 714.668 33.4061 717.797 32.7296 719.33C26.8492 722.518 26.1665 716.592 26.5603 713.23C33.7373 702.438 40.3334 710.925 42.7343 716.518C47.5464 713.783 47.6003 708.285 47.0258 705.878C45.8836 710.484 35.3792 704.642 41.1071 695.743C44.4725 690.514 50.3647 693.982 51.9685 697.262C59.3793 728.46 30.3575 730.464 14.9203 727.566Z" fill="#C28A70"/>
<path d="M6.94948 725.202C6.46295 718.739 6.63989 716.741 6.78917 716.55L7.89647 716.846L8.7224 725.503L6.94948 725.202Z" fill="#C28A70"/>
<path d="M6.65655 706.947L6.6287 717.24L14.4558 719.273L12.8288 709.433C11.3144 690.206 15.7322 681.74 18.1304 679.911C22.6786 684.388 21.1986 687.771 19.8902 688.902C20.283 685.237 17.7964 685.415 16.504 685.962C12.9 692.795 17.2196 694.879 19.83 695.066C29.4218 688.141 24.3871 678.005 20.6707 673.802C23.7144 668.236 27.8628 669.294 29.5565 670.519C25.8564 671.029 28.1002 685.599 35.9706 680.131C40.5949 676.918 39.1925 668.706 37.0532 665.992C15.0952 650.164 7.63962 686.701 6.65655 706.947Z" fill="#C28A70"/>
<path d="M51.5568 797.468C49.8013 769.771 22.4819 777.844 9.04163 785.342C5.86798 825.981 28.7289 824.99 31.6194 824.145C34.5099 823.301 36.5478 817.548 34.8057 812.921C33.0635 808.295 27.7612 805.085 25.5076 809.971C23.7047 813.88 27.3942 815.079 29.4643 815.19C23.2125 820.683 22.2782 816.869 22.5925 814.276C23.2745 811.974 24.3793 806.387 23.3422 802.458C22.3051 798.529 18.9233 799.831 17.3619 800.974C15.5443 806.959 19.0959 806.754 21.0989 805.903C22.3217 808.68 20.5497 810.321 19.5109 810.794C12.7644 810.976 13.0772 800.27 14.077 794.894C28.9719 797.077 41.5789 817.295 46.0206 827.132L53.1102 828.624C51.1165 809.461 30.4276 794.146 20.3325 788.883C28.3625 782.942 35.9675 784.765 38.7662 786.419C38.7351 790.802 36.2168 791.303 34.9616 791.006C35.4607 783.223 24.5542 788.048 30.5057 793.569C35.2669 797.987 41.0905 792.395 43.4071 789.047C46.2421 789.759 46.9262 793.398 46.9139 795.128C44.083 787.61 33.5852 797.34 41.3138 802.586C47.4966 806.783 50.7187 800.923 51.5568 797.468Z" fill="#C28A70"/>
</svg>
